<svg version="1.1" xmlns="http://www.w3.org/2000/svg" xmlns:xlink="http://www.w3.org/1999/xlink" width="450.000000pt" height="450.000000pt" viewBox="0,0,256,256"><g fill="#ffffff" fill-rule="nonzero" stroke="none" stroke-width="1" stroke-linecap="butt" stroke-linejoin="miter" stroke-miterlimit="10" stroke-dasharray="" stroke-dashoffset="0" font-family="none" font-weight="none" font-size="none" text-anchor="none" style="mix-blend-mode: normal"><g transform="translate(-4.4386,-1.65416) scale(0.56889,0.56889)"><g transform="translate(0,450) scale(0.1,-0.1)"><path d="M1501,4045c-143,-32 -291,-99 -396,-178c-112,-84 -225,-216 -294,-342c-12,-22 -49,-76 -81,-120c-110,-147 -184,-316 -217,-487c-27,-146 -25,-448 5,-598c33,-162 93,-337 173,-501l69,-140l-16,-92c-21,-122 -15,-300 15,-417c45,-174 145,-346 274,-473c180,-176 391,-264 683,-286c77,-6 180,-16 229,-21c164,-19 396,16 564,85c328,135 568,336 787,661l95,141l75,23c41,12 109,40 151,62c258,132 445,367 519,653c22,85 26,122 26,240c0,118 -4,156 -26,240c-23,88 -72,204 -134,315c-11,19 -45,87 -75,150c-65,135 -153,255 -263,360c-293,279 -632,410 -1152,445l-104,7l-51,46c-107,95 -231,162 -387,209c-73,22 -108,26 -245,29c-114,3 -178,-1 -224,-11zM1840,3654c222,-52 402,-232 454,-454c48,-203 -15,-420 -166,-571c-157,-157 -396,-216 -608,-150c-187,59 -342,215 -403,406c-29,94 -31,263 -3,345c76,224 233,373 445,425c76,18 202,18 281,-1zM2816,3415c108,-19 204,-51 326,-108l93,-43l-112,-7c-122,-8 -265,-40 -357,-81c-33,-14 -60,-25 -62,-23c-2,1 -8,33 -14,69c-5,37 -19,95 -30,130c-11,35 -20,66 -20,71c0,12 81,8 176,-8zM3335,2838c87,-25 124,-44 201,-102c106,-79 188,-208 220,-343c24,-100 15,-257 -19,-345c-94,-245 -311,-399 -567,-400c-174,-2 -313,55 -435,177c-122,121 -179,259 -179,430c0,171 57,309 179,430c162,162 380,218 600,153zM902,2457c50,-66 118,-135 181,-184l59,-45l-39,-31c-21,-17 -68,-61 -104,-99l-66,-69l-27,61c-67,149 -102,286 -112,445l-6,100l41,-68c22,-38 55,-88 73,-110zM1925,1991c247,-84 415,-317 415,-576c0,-168 -60,-307 -184,-430c-126,-125 -250,-176 -426,-176c-171,0 -305,55 -426,176c-114,113 -170,237 -181,395c-11,175 49,332 177,461c169,171 401,227 625,150zM2938,1279c34,-7 62,-16 62,-20c0,-19 -128,-174 -196,-238c-66,-61 -234,-185 -241,-177c-2,1 17,37 41,79c52,93 103,240 118,346l12,77l70,-27c39,-15 99,-33 134,-40z"></path></g></g></g></svg>