<?xml version="1.0" standalone="no"?>
<!DOCTYPE svg PUBLIC "-//W3C//DTD SVG 20010904//EN"
 "http://www.w3.org/TR/2001/REC-SVG-20010904/DTD/svg10.dtd">
<svg version="1.0" xmlns="http://www.w3.org/2000/svg"
 width="450.000000pt" height="450.000000pt" viewBox="0 0 450.000000 450.000000"
 preserveAspectRatio="xMidYMid meet">

<g transform="translate(0.000000,450.000000) scale(0.100000,-0.100000)"
fill="#000000" stroke="none">
<path d="M1501 4045 c-143 -32 -291 -99 -396 -178 -112 -84 -225 -216 -294
-342 -12 -22 -49 -76 -81 -120 -110 -147 -184 -316 -217 -487 -27 -146 -25
-448 5 -598 33 -162 93 -337 173 -501 l69 -140 -16 -92 c-21 -122 -15 -300 15
-417 45 -174 145 -346 274 -473 180 -176 391 -264 683 -286 77 -6 180 -16 229
-21 164 -19 396 16 564 85 328 135 568 336 787 661 l95 141 75 23 c41 12 109
40 151 62 258 132 445 367 519 653 22 85 26 122 26 240 0 118 -4 156 -26 240
-23 88 -72 204 -134 315 -11 19 -45 87 -75 150 -65 135 -153 255 -263 360
-293 279 -632 410 -1152 445 l-104 7 -51 46 c-107 95 -231 162 -387 209 -73
22 -108 26 -245 29 -114 3 -178 -1 -224 -11z m339 -391 c222 -52 402 -232 454
-454 48 -203 -15 -420 -166 -571 -157 -157 -396 -216 -608 -150 -187 59 -342
215 -403 406 -29 94 -31 263 -3 345 76 224 233 373 445 425 76 18 202 18 281
-1z m976 -239 c108 -19 204 -51 326 -108 l93 -43 -112 -7 c-122 -8 -265 -40
-357 -81 -33 -14 -60 -25 -62 -23 -2 1 -8 33 -14 69 -5 37 -19 95 -30 130 -11
35 -20 66 -20 71 0 12 81 8 176 -8z m519 -577 c87 -25 124 -44 201 -102 106
-79 188 -208 220 -343 24 -100 15 -257 -19 -345 -94 -245 -311 -399 -567 -400
-174 -2 -313 55 -435 177 -122 121 -179 259 -179 430 0 171 57 309 179 430
162 162 380 218 600 153z m-2433 -381 c50 -66 118 -135 181 -184 l59 -45 -39
-31 c-21 -17 -68 -61 -104 -99 l-66 -69 -27 61 c-67 149 -102 286 -112 445
l-6 100 41 -68 c22 -38 55 -88 73 -110z m1023 -466 c247 -84 415 -317 415
-576 0 -168 -60 -307 -184 -430 -126 -125 -250 -176 -426 -176 -171 0 -305 55
-426 176 -114 113 -170 237 -181 395 -11 175 49 332 177 461 169 171 401 227
625 150z m1013 -712 c34 -7 62 -16 62 -20 0 -19 -128 -174 -196 -238 -66 -61
-234 -185 -241 -177 -2 1 17 37 41 79 52 93 103 240 118 346 l12 77 70 -27
c39 -15 99 -33 134 -40z"/>
</g>
</svg>
